<?xml version="1.0" encoding="UTF-8"?>
<svg width="48px" height="48px" viewBox="0 0 48 48" version="1.1" xmlns="http://www.w3.org/2000/svg" xmlns:xlink="http://www.w3.org/1999/xlink">
    <!-- Generator: Sketch 52.3 (67297) - http://www.bohemiancoding.com/sketch -->
    <title>icon</title>
    <desc>Created with Sketch.</desc>
    <g id="Page-1" stroke="none" stroke-width="1" fill="none" fill-rule="evenodd">
        <g id="Artboard" transform="translate(-8.000000, -8.000000)">
            <g id="Logo" transform="translate(8.000000, 8.000000)">
                <g id="icon">
                    <path d="M9,0 L39,0 C43.9705627,-9.13077564e-16 48,4.02943725 48,9 L48,39 C48,43.9705627 43.9705627,48 39,48 L9,48 C4.02943725,48 6.08718376e-16,43.9705627 0,39 L0,9 C-6.08718376e-16,4.02943725 4.02943725,9.13077564e-16 9,0 Z" id="Rectangle-5" fill="#2382D1"></path>
                    <path d="M11.0328126,22.2921632 C10.9202038,23.1686143 10.1184124,23.7878308 9.24196129,23.6752219 C8.36551023,23.5626131 7.74629374,22.7608217 7.85890255,21.8843706 C8.94950118,13.3960801 16.1852837,6.96945813 24.800316,6.96945813 C28.7125015,6.96945813 32.4270241,8.29349058 35.4259702,10.6841698 C36.1169411,11.2349932 36.2305531,12.2416664 35.6797297,12.9326373 C35.1289063,13.6236082 34.1222331,13.7372202 33.4312622,13.1863968 C30.9939039,11.2434003 27.9810002,10.1694581 24.800316,10.1694581 C17.8014661,10.1694581 11.9191064,15.3940073 11.0328126,22.2921632 Z" id="Combined-Shape" fill="#FFFFFF" fill-rule="nonzero"></path>
                    <path d="M23.8227605,37.6873852 C24.7046523,37.7431886 25.3743294,38.5033407 25.3185261,39.3852325 C25.2627228,40.2671243 24.5025707,40.9368014 23.6206788,40.8809981 C15.7166347,40.3808553 9.19638241,34.5160706 7.86898208,26.7934779 C7.71928986,25.9225936 8.30393154,25.0952529 9.17481584,24.9455607 C10.0457001,24.7958684 10.8730409,25.3805101 11.0227331,26.2513944 C12.0991928,32.5140569 17.3987905,37.2808969 23.8227605,37.6873852 Z" id="Combined-Shape" fill="#FFFFFF" fill-rule="nonzero" opacity="0.75"></path>
                    <path d="M33.3294704,34.9998224 C34.0232262,34.4525108 35.0293102,34.5712273 35.5766219,35.2649831 C36.1239335,35.958739 36.005217,36.964823 35.3114611,37.5121346 C33.3478501,39.0612489 31.0708551,40.1648304 28.6271625,40.7342907 C27.7665651,40.9348381 26.9063372,40.3997618 26.7057899,39.5391643 C26.5052425,38.6785668 27.0403189,37.818339 27.9009163,37.6177917 C29.8836434,37.1557514 31.7325524,36.2596485 33.3294704,34.9998224 Z" id="Combined-Shape" fill="#FFFFFF" fill-rule="nonzero" opacity="0.5"></path>
                    <g id="C" transform="translate(17.725000, 16.725000)" fill="#FFFFFF" fill-rule="nonzero">
                        <path d="M11.674535,13.0314212 C11.0623389,13.6686519 10.0494782,13.6889465 9.41224741,13.0767504 C8.77501662,12.4645542 8.75472204,11.4516935 9.3669182,10.8144627 C10.0631789,10.0897298 10.4573916,9.13027421 10.4573916,8.10467733 C10.4573916,7.0780124 10.062349,6.11763184 9.36478808,5.39267641 C8.6307969,4.62985999 7.62486485,4.19260836 6.54532267,4.19260836 C4.38474664,4.19260836 2.63325371,5.9441013 2.63325371,8.10467733 C2.63325371,9.17719916 3.06477466,10.1771115 3.81883143,10.9101285 C4.45244735,11.5260653 4.46677915,12.5390279 3.85084239,13.1726438 C3.23490564,13.8062597 2.22194305,13.8205915 1.58832713,13.2046547 C0.220673551,11.8751615 -0.566746293,10.0505669 -0.566746293,8.10467733 C-0.566746293,4.1767901 2.61743544,0.992608362 6.54532267,0.992608362 C8.50399591,0.992608362 10.339478,1.79044309 11.6706777,3.17392154 C12.9362989,4.48924614 13.6573916,6.24228064 13.6573916,8.10467733 C13.6573916,9.9651296 12.9378085,11.7164884 11.674535,13.0314212 Z" id="Oval" transform="translate(6.545323, 7.325001) scale(-1, 1) rotate(90.000000) translate(-6.545323, -7.325001) "></path>
                    </g>
                </g>
            </g>
        </g>
    </g>
</svg>